<svg width="200" height="200" viewBox="0 0 200 200" fill="none" xmlns="http://www.w3.org/2000/svg">
<rect width="200" height="200" fill="white"/>
<circle cx="101" cy="100" r="74" fill="#E5E5E5"/>
<circle cx="39" cy="103" r="6" fill="#F9F9F9"/>
<circle cx="30" cy="126" r="8" fill="#FF7600"/>
<circle cx="51" cy="174" r="4" fill="#999999"/>
<circle cx="156" cy="152" r="4" fill="#FF7600"/>
<circle cx="153" cy="61" r="4" fill="#F9F9F9"/>
<circle cx="174" cy="48" r="4" fill="#999999"/>
<circle cx="166" cy="30" r="8" fill="#FF7600"/>
<circle cx="155" cy="26" r="2" fill="#FF7600"/>
<path d="M72.9803 107.148C73.1922 106.638 73.7775 106.396 74.2875 106.608L96.4507 115.816C96.9607 116.028 97.2024 116.614 96.9905 117.124L83.0039 150.788C82.7051 151.507 81.7353 151.624 81.2744 150.996L74.5125 141.788C73.8593 140.899 72.7705 140.44 71.6776 140.593L60.0397 142.226C59.2731 142.334 58.6803 141.567 58.9773 140.852L72.9803 107.148Z" fill="#999999" stroke="#3E3E3E" stroke-width="2"/>
<path d="M103.689 117.097C103.478 116.586 103.72 116.001 104.23 115.79L126.404 106.607C126.914 106.396 127.499 106.638 127.711 107.148L141.659 140.828C141.957 141.548 141.355 142.317 140.585 142.2L129.291 140.481C128.2 140.315 127.106 140.762 126.442 141.644L119.377 151.035C118.912 151.654 117.95 151.532 117.654 150.816L103.689 117.097Z" fill="#999999" stroke="#3E3E3E" stroke-width="2"/>
<path d="M96.2257 44.8313C98.213 42.5242 101.787 42.5242 103.774 44.8313C105.822 47.2089 109.205 47.9279 112.043 46.5889C114.797 45.2895 118.062 46.7432 118.939 49.6592C119.843 52.6642 122.641 54.6969 125.778 54.628C128.822 54.5611 131.214 57.2171 130.829 60.2377C130.433 63.3506 132.162 66.3455 135.056 67.5586C137.864 68.7358 138.969 72.1348 137.388 74.7378C135.76 77.4203 136.122 80.8596 138.272 83.1449C140.359 85.3626 139.985 88.9169 137.483 90.6522C134.904 92.4405 133.836 95.7295 134.871 98.6919C135.875 101.567 134.088 104.662 131.096 105.229C128.013 105.814 125.699 108.384 125.44 111.511C125.188 114.546 122.297 116.647 119.333 115.948C116.279 115.229 113.119 116.635 111.61 119.387C110.146 122.057 106.65 122.8 104.227 120.956C101.729 119.056 98.2709 119.056 95.7733 120.956C93.3497 122.8 89.8538 122.057 88.3896 119.387C86.8806 116.635 83.7214 115.229 80.667 115.948C77.7031 116.647 74.8117 114.546 74.56 111.511C74.3006 108.384 71.9866 105.814 68.9036 105.229C65.9119 104.662 64.1249 101.567 65.1292 98.6919C66.1643 95.7295 65.0956 92.4405 62.517 90.6522C60.0148 88.9169 59.6412 85.3626 61.7279 83.1449C63.8784 80.8596 64.2399 77.4203 62.6116 74.7378C61.0315 72.1348 62.1359 68.7358 64.9442 67.5586C67.8383 66.3455 69.5674 63.3506 69.1709 60.2377C68.7862 57.2171 71.1776 54.5611 74.222 54.628C77.3592 54.6969 80.157 52.6642 81.0609 49.6592C81.9381 46.7432 85.203 45.2895 87.957 46.5889C90.795 47.9279 94.1776 47.2089 96.2257 44.8313Z" fill="#FF7600" stroke="#3E3E3E" stroke-width="2" stroke-linejoin="round"/>
<path d="M130.91 74.6354C130.154 71.815 129.016 69.1113 127.527 66.5996" stroke="#3E3E3E" stroke-width="2" stroke-linecap="round"/>
<path d="M125.216 63.2165C121.482 58.4375 116.467 54.8179 110.756 52.7795C105.044 50.741 98.8704 50.3677 92.9545 51.7029C87.0387 53.0382 81.624 56.027 77.3415 60.3212C73.059 64.6155 70.085 70.0382 68.7659 75.9577" stroke="#3E3E3E" stroke-width="2" stroke-linecap="round"/>
<mask id="path-15-inside-1_201_6222" fill="white">
<path fill-rule="evenodd" clip-rule="evenodd" d="M96.3455 95.8227C95.797 95.7065 95.2748 95.4354 94.8488 95.0094L82.1209 82.2815C80.9493 81.1099 80.9493 79.2104 82.1209 78.0388C83.2924 76.8673 85.1919 76.8673 86.3635 78.0388L97.1416 88.8169L114.92 71.0388C116.091 69.8673 117.991 69.8673 119.162 71.0388C120.334 72.2104 120.334 74.1099 119.162 75.2815L99.3634 95.0805C98.5467 95.8971 97.3765 96.1445 96.3455 95.8227Z"/>
</mask>
<path fill-rule="evenodd" clip-rule="evenodd" d="M96.3455 95.8227C95.797 95.7065 95.2748 95.4354 94.8488 95.0094L82.1209 82.2815C80.9493 81.1099 80.9493 79.2104 82.1209 78.0388C83.2924 76.8673 85.1919 76.8673 86.3635 78.0388L97.1416 88.8169L114.92 71.0388C116.091 69.8673 117.991 69.8673 119.162 71.0388C120.334 72.2104 120.334 74.1099 119.162 75.2815L99.3634 95.0805C98.5467 95.8971 97.3765 96.1445 96.3455 95.8227Z" fill="white"/>
<path d="M96.3455 95.8227L96.6435 94.8681C96.6137 94.8588 96.5834 94.8509 96.5528 94.8444L96.3455 95.8227ZM94.8488 95.0094L94.1417 95.7165L94.8488 95.0094ZM82.1209 82.2815L82.828 81.5744L82.1209 82.2815ZM82.1209 78.0388L81.4138 77.3317H81.4138L82.1209 78.0388ZM86.3635 78.0388L87.0706 77.3317L86.3635 78.0388ZM97.1416 88.8169L96.4345 89.524C96.622 89.7116 96.8764 89.8169 97.1416 89.8169C97.4068 89.8169 97.6612 89.7116 97.8487 89.524L97.1416 88.8169ZM114.92 71.0388L115.627 71.7459V71.7459L114.92 71.0388ZM119.162 71.0388L118.455 71.7459L118.455 71.7459L119.162 71.0388ZM119.162 75.2815L118.455 74.5744L119.162 75.2815ZM99.3634 95.0805L100.07 95.7876L99.3634 95.0805ZM96.5528 94.8444C96.1879 94.7671 95.8409 94.5873 95.5559 94.3023L94.1417 95.7165C94.7086 96.2835 95.4062 96.6459 96.1383 96.801L96.5528 94.8444ZM95.5559 94.3023L82.828 81.5744L81.4138 82.9886L94.1417 95.7165L95.5559 94.3023ZM82.828 81.5744C82.0469 80.7933 82.0469 79.527 82.828 78.7459L81.4138 77.3317C79.8517 78.8938 79.8517 81.4265 81.4138 82.9886L82.828 81.5744ZM82.828 78.7459C83.609 77.9649 84.8754 77.9649 85.6564 78.7459L87.0706 77.3317C85.5085 75.7696 82.9759 75.7696 81.4138 77.3317L82.828 78.7459ZM85.6564 78.7459L96.4345 89.524L97.8487 88.1098L87.0706 77.3317L85.6564 78.7459ZM97.8487 89.524L115.627 71.7459L114.213 70.3317L96.4345 88.1098L97.8487 89.524ZM115.627 71.7459C116.408 70.9649 117.674 70.9649 118.455 71.7459L119.869 70.3317C118.307 68.7696 115.775 68.7696 114.213 70.3317L115.627 71.7459ZM118.455 71.7459C119.236 72.527 119.236 73.7933 118.455 74.5744L119.869 75.9886C121.432 74.4265 121.432 71.8938 119.869 70.3317L118.455 71.7459ZM118.455 74.5744L98.6563 94.3734L100.07 95.7876L119.869 75.9886L118.455 74.5744ZM98.6563 94.3734C98.1128 94.9168 97.3335 95.0835 96.6435 94.8681L96.0476 96.7773C97.4194 97.2055 98.9807 96.8774 100.07 95.7876L98.6563 94.3734Z" fill="#3E3E3E" mask="url(#path-15-inside-1_201_6222)"/>
<rect x="87.5293" y="122.917" width="1" height="6" rx="0.5" transform="rotate(22.8112 87.5293 122.917)" fill="#3E3E3E"/>
<rect x="112" y="123.297" width="1" height="6" rx="0.5" transform="rotate(-22.3323 112 123.297)" fill="#3E3E3E"/>
<rect x="84.4277" y="130.292" width="1" height="4" rx="0.5" transform="rotate(22.8112 84.4277 130.292)" fill="#3E3E3E"/>
<rect x="115.039" y="130.697" width="1" height="14" rx="0.5" transform="rotate(-22.3323 115.039 130.697)" fill="#3E3E3E"/>
<rect x="82.1016" y="135.822" width="1" height="8" rx="0.5" transform="rotate(22.8112 82.1016 135.822)" fill="#3E3E3E"/>
<path d="M131.689 78.4637C132.863 86.8203 130.689 95.3026 125.64 102.064C120.591 108.826 113.075 113.319 104.729 114.566C96.3829 115.813 87.882 113.713 81.0769 108.722C74.2718 103.732 69.7133 96.2558 68.3938 87.9209" stroke="#3E3E3E" stroke-width="2" stroke-linecap="round"/>
</svg>
