<svg width="200" height="200" viewBox="0 0 200 200" fill="none" xmlns="http://www.w3.org/2000/svg">
<rect width="200" height="200" fill="white"/>
<circle cx="101" cy="100" r="74" fill="#E5E5E5"/>
<circle cx="38" cy="84" r="6" fill="#F9F9F9"/>
<circle cx="46" cy="150" r="8" fill="#FF7600"/>
<circle cx="51" cy="174" r="4" fill="#3E3E3E"/>
<circle cx="156" cy="152" r="4" fill="#FF7600"/>
<circle cx="76" cy="42" r="4" fill="#F9F9F9"/>
<circle cx="174" cy="48" r="4" fill="#3E3E3E"/>
<circle cx="166" cy="30" r="8" fill="#FF7600"/>
<circle cx="155" cy="26" r="2" fill="#FF7600"/>
<circle cx="100" cy="100" r="49" fill="#FF7600" stroke="#3E3E3E" stroke-width="2"/>
<path d="M139.602 89.3886C138.696 86.006 137.36 82.7535 135.627 79.7104" stroke="#3E3E3E" stroke-width="2" stroke-linecap="round"/>
<path d="M140.601 94.2938C141.992 104.191 139.72 114.255 134.213 122.594C128.705 130.934 120.341 136.975 110.693 139.581C101.045 142.187 90.7765 141.18 81.8188 136.748C72.8611 132.316 65.8306 124.765 62.0489 115.514C58.2673 106.263 57.9948 95.949 61.2828 86.5112C64.5708 77.0734 71.1928 69.1616 79.904 64.2629C88.6152 59.3642 98.8158 57.816 108.588 59.9094C118.361 62.0027 127.032 67.5934 132.972 75.6306" stroke="#3E3E3E" stroke-width="2" stroke-linecap="round"/>
<mask id="path-13-inside-1_201_6249" fill="white">
<path fill-rule="evenodd" clip-rule="evenodd" d="M96.758 117.271C96.0043 117.111 95.2867 116.739 94.7012 116.153L77.2077 98.6598C75.5974 97.0496 75.5974 94.4389 77.2077 92.8286C78.8179 91.2184 81.4286 91.2184 83.0389 92.8286L97.8525 107.642L122.287 83.2077C123.897 81.5974 126.508 81.5974 128.118 83.2077C129.729 84.8179 129.729 87.4286 128.118 89.0389L100.906 116.251C99.7836 117.374 98.175 117.714 96.758 117.271Z"/>
</mask>
<path fill-rule="evenodd" clip-rule="evenodd" d="M96.758 117.271C96.0043 117.111 95.2867 116.739 94.7012 116.153L77.2077 98.6598C75.5974 97.0496 75.5974 94.4389 77.2077 92.8286C78.8179 91.2184 81.4286 91.2184 83.0389 92.8286L97.8525 107.642L122.287 83.2077C123.897 81.5974 126.508 81.5974 128.118 83.2077C129.729 84.8179 129.729 87.4286 128.118 89.0389L100.906 116.251C99.7836 117.374 98.175 117.714 96.758 117.271Z" fill="white"/>
<path d="M96.758 117.271L97.0561 116.317C97.0262 116.307 96.996 116.299 96.9654 116.293L96.758 117.271ZM94.7012 116.153L95.4084 115.446H95.4083L94.7012 116.153ZM77.2077 98.6598L76.5006 99.3669H76.5006L77.2077 98.6598ZM77.2077 92.8286L76.5006 92.1215L76.5006 92.1215L77.2077 92.8286ZM83.0389 92.8286L83.746 92.1215H83.746L83.0389 92.8286ZM97.8525 107.642L97.1454 108.349C97.5359 108.74 98.1691 108.74 98.5596 108.349L97.8525 107.642ZM122.287 83.2077L121.58 82.5006V82.5006L122.287 83.2077ZM128.118 83.2077L127.411 83.9148L128.118 83.2077ZM128.118 89.0389L128.825 89.746V89.746L128.118 89.0389ZM100.906 116.251L100.199 115.544L100.906 116.251ZM96.9654 116.293C96.3952 116.172 95.8528 115.891 95.4084 115.446L93.9941 116.86C94.7205 117.587 95.6134 118.051 96.5507 118.249L96.9654 116.293ZM95.4083 115.446L77.9148 97.9527L76.5006 99.3669L93.9941 116.86L95.4083 115.446ZM77.9148 97.9527C76.6951 96.733 76.6951 94.7555 77.9148 93.5357L76.5006 92.1215C74.4998 94.1223 74.4998 97.3662 76.5006 99.3669L77.9148 97.9527ZM77.9148 93.5357C79.1345 92.316 81.112 92.316 82.3318 93.5357L83.746 92.1215C81.7452 90.1208 78.5013 90.1208 76.5006 92.1215L77.9148 93.5357ZM82.3318 93.5357L97.1454 108.349L98.5596 106.935L83.746 92.1215L82.3318 93.5357ZM98.5596 108.349L122.994 83.9148L121.58 82.5006L97.1454 106.935L98.5596 108.349ZM122.994 83.9148C124.214 82.6951 126.191 82.6951 127.411 83.9148L128.825 82.5006C126.825 80.4998 123.581 80.4998 121.58 82.5006L122.994 83.9148ZM127.411 83.9148C128.631 85.1345 128.631 87.112 127.411 88.3318L128.825 89.746C130.826 87.7452 130.826 84.5013 128.825 82.5006L127.411 83.9148ZM127.411 88.3318L100.199 115.544L101.613 116.958L128.825 89.746L127.411 88.3318ZM100.199 115.544C99.3497 116.393 98.1321 116.653 97.0561 116.317L96.46 118.226C98.2179 118.775 100.218 118.354 101.613 116.958L100.199 115.544Z" fill="#3E3E3E" mask="url(#path-13-inside-1_201_6249)"/>
</svg>
