<svg width="200" height="200" viewBox="0 0 200 200" fill="none" xmlns="http://www.w3.org/2000/svg">
<rect width="200" height="200" fill="white"/>
<circle cx="101" cy="100" r="74" fill="#E5E5E5"/>
<circle cx="36" cy="98" r="6" fill="#F9F9F9"/>
<circle cx="30" cy="126" r="8" fill="#FF7600"/>
<circle cx="51" cy="174" r="4" fill="#999999"/>
<circle cx="156" cy="152" r="4" fill="#FF7600"/>
<circle cx="108" cy="34" r="4" fill="#F9F9F9"/>
<circle cx="174" cy="48" r="4" fill="#999999"/>
<circle cx="166" cy="30" r="8" fill="#F08C3D"/>
<circle cx="155" cy="26" r="2" fill="#F08C3D"/>
<rect x="48" y="58" width="103" height="67" rx="11" fill="#999999" stroke="#3E3E3E" stroke-width="2"/>
<rect x="49" y="69" width="101" height="45" fill="#FF7600"/>
<rect x="90" y="126" width="19" height="9" fill="#D9D9D9" stroke="#3E3E3E" stroke-width="2"/>
<rect x="61.5" y="141.5" width="76" height="1" rx="0.5" fill="#D9D9D9" stroke="#3E3E3E"/>
<path d="M77.0549 142C77.5524 137.5 81.3674 134 86 134H113C117.633 134 121.448 137.5 121.945 142H77.0549Z" fill="#D9D9D9" stroke="#3E3E3E" stroke-width="2"/>
<rect x="48" y="67" width="67" height="2" rx="1" fill="#3E3E3E"/>
<rect x="53" y="114" width="14" height="2" rx="1" fill="#3E3E3E"/>
<rect x="119" y="67" width="10" height="2" rx="1" fill="#3E3E3E"/>
<rect x="71" y="114" width="52" height="2" rx="1" fill="#3E3E3E"/>
<rect x="133" y="67" width="18" height="2" rx="1" fill="#3E3E3E"/>
<rect x="127" y="114" width="16" height="2" rx="1" fill="#3E3E3E"/>
<path d="M102.123 94.5404L108.168 92.3876L109.215 92.0148L108.241 91.4786L90.2413 81.5621L89.2189 80.9988L89.5165 82.1275L94.7641 102.028L95.0486 103.107L95.6645 102.176L99.2104 96.8213L103.488 102.307L103.796 102.703L104.19 102.394L106.316 100.73L106.709 100.422L106.402 100.029L102.123 94.5404Z" fill="white" stroke="#3E3E3E"/>
</svg>
