<svg width="240" height="480" viewBox="0 0 240 480" fill="none" xmlns="http://www.w3.org/2000/svg">
<g opacity="0.3" clip-path="url(#clip0_225_587)">
<path d="M87.9108 175.541C87.4564 176.653 87.0147 177.768 86.5856 178.887C63.9555 237.906 76.431 307.299 124.012 354.88C188.503 419.371 293.062 419.371 357.552 354.88C422.042 290.39 422.042 185.831 357.552 121.341C303.282 67.0708 220.637 58.4701 157.374 95.5386" stroke="#FF7600" stroke-width="24" stroke-linecap="round"/>
<circle cx="235.597" cy="240" r="43.0459" stroke="#FF7600" stroke-width="24"/>
<path d="M296.628 333.083C254.071 360.035 197.061 354.956 159.951 317.847C116.958 274.853 116.958 205.147 159.951 162.154C202.945 119.16 272.651 119.16 315.644 162.153C349.345 195.854 356.629 245.968 337.497 286.764" stroke="#3E3E3E" stroke-width="24" stroke-linecap="round"/>
<path d="M463.486 200.367C442.569 92.477 352.909 13.2109 240.535 13.2109C114.987 13.2109 13.2109 114.748 13.2109 240C13.2109 365.252 114.987 466.789 240.535 466.789C340.642 466.789 424.344 402.321 454.679 312.66" stroke="#3E3E3E" stroke-width="24" stroke-linecap="round"/>
</g>
<defs>
<clipPath id="clip0_225_587">
<rect width="240" height="480" fill="white"/>
</clipPath>
</defs>
</svg>
