<svg width="747" height="218" viewBox="0 0 747 218" fill="none" xmlns="http://www.w3.org/2000/svg">
<path d="M364.1 75L341.2 145H323.8L308.4 97.6L292.5 145H275.2L252.2 75H269L284.8 124.2L301.3 75H316.3L332.3 124.6L348.6 75H364.1ZM427.344 132V145H373.144V75H426.044V88H389.244V103.2H421.744V115.8H389.244V132H427.344ZM491.634 108.6C495.634 109.867 498.767 112 501.034 115C503.3 117.933 504.434 121.567 504.434 125.9C504.434 132.033 502.034 136.767 497.234 140.1C492.5 143.367 485.567 145 476.434 145H440.234V75H474.434C482.967 75 489.5 76.6333 494.034 79.9C498.634 83.1667 500.934 87.6 500.934 93.2C500.934 96.6 500.1 99.6333 498.434 102.3C496.834 104.967 494.567 107.067 491.634 108.6ZM456.334 87.2V103.7H472.434C476.434 103.7 479.467 103 481.534 101.6C483.6 100.2 484.634 98.1333 484.634 95.4C484.634 92.6667 483.6 90.6333 481.534 89.3C479.467 87.9 476.434 87.2 472.434 87.2H456.334ZM475.234 132.8C479.5 132.8 482.7 132.1 484.834 130.7C487.034 129.3 488.134 127.133 488.134 124.2C488.134 118.4 483.834 115.5 475.234 115.5H456.334V132.8H475.234ZM513.598 110.6H541.898V123.1H513.598V110.6ZM599.029 130H566.529L560.329 145H543.729L574.929 75H590.929L622.229 145H605.229L599.029 130ZM593.929 117.7L582.829 90.9L571.729 117.7H593.929ZM628.391 91.2H643.991V145H628.391V91.2ZM636.191 83.7C633.325 83.7 630.991 82.8667 629.191 81.2C627.391 79.5333 626.491 77.4667 626.491 75C626.491 72.5333 627.391 70.4667 629.191 68.8C630.991 67.1333 633.325 66.3 636.191 66.3C639.058 66.3 641.391 67.1 643.191 68.7C644.991 70.3 645.891 72.3 645.891 74.7C645.891 77.3 644.991 79.4667 643.191 81.2C641.391 82.8667 639.058 83.7 636.191 83.7ZM723.27 145L723.17 103L702.57 137.6H695.27L674.77 103.9V145H659.57V75H672.97L699.17 118.5L724.97 75H738.27L738.47 145H723.27Z" fill="#333333"/>
<path d="M39.9263 79.725C39.72 80.2297 39.5194 80.7362 39.3245 81.2445C29.0467 108.049 34.7126 139.565 56.3225 161.175C85.6118 190.464 133.099 190.464 162.388 161.175C191.678 131.886 191.678 84.3982 162.388 55.1089C137.741 30.4613 100.206 26.5552 71.4741 43.3904" stroke="#FF7600" stroke-width="12" stroke-linecap="round"/>
<circle cx="107" cy="109" r="19" stroke="#FF7600" stroke-width="12"/>
<path d="M134.719 151.275C115.391 163.516 89.4985 161.209 72.6447 144.355C53.1184 124.829 53.1184 93.1709 72.6447 73.6447C92.1709 54.1185 123.829 54.1185 143.355 73.6447C158.661 88.9504 161.969 111.71 153.28 130.239" stroke="#333333" stroke-width="12" stroke-linecap="round"/>
<path d="M210.5 91C201 42 160.279 6 109.243 6C52.2234 6 6 52.1147 6 109C6 165.885 52.2234 212 109.243 212C154.708 212 192.723 182.721 206.5 142" stroke="#333333" stroke-width="12" stroke-linecap="round"/>
</svg>
