<svg width="400" height="800" viewBox="0 0 400 800" fill="none" xmlns="http://www.w3.org/2000/svg">
<g clip-path="url(#clip0_201_6056)">
<path d="M146.518 292.569C145.761 294.421 145.025 296.28 144.309 298.145C106.592 396.51 127.385 512.165 206.687 591.467C314.171 698.951 488.437 698.951 595.92 591.467C703.404 483.984 703.404 309.718 595.92 202.234C505.47 111.785 367.729 97.4502 262.289 159.231" stroke="#FF7600" stroke-width="40" stroke-linecap="round"/>
<circle cx="392.66" cy="400" r="71.7431" stroke="#FF7600" stroke-width="40"/>
<path d="M494.381 555.138C423.453 600.058 328.435 591.594 266.586 529.745C194.93 458.089 194.93 341.912 266.586 270.256C338.242 198.6 454.419 198.6 526.074 270.256C582.242 326.424 594.383 409.946 562.496 477.94" stroke="#3E3E3E" stroke-width="40" stroke-linecap="round"/>
<path d="M772.477 333.945C737.615 154.128 588.182 22.0183 400.892 22.0183C191.646 22.0183 22.0186 191.246 22.0186 400C22.0186 608.753 191.646 777.982 400.892 777.982C567.737 777.982 707.24 670.535 757.798 521.101" stroke="#3E3E3E" stroke-width="40" stroke-linecap="round"/>
</g>
<defs>
<clipPath id="clip0_201_6056">
<rect width="400" height="800" fill="white"/>
</clipPath>
</defs>
</svg>
